<?xml version="1.0" encoding="UTF-8"?>
<svg width="135px" height="32px" viewBox="0 0 135 32" version="1.1" xmlns="http://www.w3.org/2000/svg" xmlns:xlink="http://www.w3.org/1999/xlink">
    <!-- Generator: Sketch 49.1 (51147) - http://www.bohemiancoding.com/sketch -->
    <title>instabug</title>
    <desc>Created with Sketch.</desc>
    <defs></defs>
    <g id="Home" stroke="none" stroke-width="1" fill="none" fill-rule="evenodd" opacity="0.25">
        <g id="home" transform="translate(-1186.000000, -2405.000000)">
            <g id="Group-8" transform="translate(0.000000, 2385.000000)">
                <g id="Stacked-Group-2" transform="translate(1047.000000, 20.000000)">
                    <g id="Components-/-Logo-/-Light" transform="translate(139.000000, 0.000000)">
                        <g id="Group-2">
                            <path d="M25.5824221,31.905928 L6.48931402,31.905928 C2.97524506,31.905928 0.117135632,29.0563502 0.117135632,25.552771 L0.117135632,6.51665733 C0.117135632,3.01307812 2.97524506,0.163500363 6.48931402,0.163500363 L25.5824221,0.163500363 C29.096491,0.163500363 31.9546005,3.01307812 31.9546005,6.51665733 L31.9546005,25.552771 C31.9546005,29.0563502 29.096491,31.905928 25.5824221,31.905928" id="Shape" fill="#FFFFFF"></path>
                            <path d="M20.1473287,9.08594875 C23.8019605,10.674238 26.3555172,14.2946032 26.3789444,18.5222554 C26.3789444,24.1746965 21.7403733,28.7994211 16.0475816,28.7994211 C10.378217,28.7994211 5.73964598,24.1980537 5.73964598,18.5222554 C5.73964598,14.2946032 8.29320276,10.674238 11.9478345,9.08594875 L12.1821058,8.59544766 C12.6740754,7.5210167 13.5877333,6.72687208 14.6653812,6.35315696 C14.5482455,5.7458699 14.1499844,5.20865442 13.6345876,4.92836809 C13.4237435,5.20865442 13.1191908,5.39551198 12.7443568,5.39551198 C12.1352515,5.39551198 11.666709,4.90501089 11.666709,4.32108102 C11.666709,3.71379396 12.1586786,3.24665007 12.7443568,3.24665007 C13.2831807,3.24665007 13.7282961,3.66707957 13.7985775,4.20429505 C14.5716726,4.55465297 15.1807779,5.25536881 15.3447678,6.16629941 C15.5790391,6.11958502 15.8133103,6.09622782 16.0475816,6.09622782 C16.3287071,6.09622782 16.6098326,6.14294221 16.867531,6.1896566 C17.0549481,5.27872601 17.6640533,4.57801017 18.4371485,4.22765224 C18.4840028,3.69043677 18.9525453,3.27000726 19.4913692,3.27000726 C20.1004745,3.27000726 20.569017,3.76050835 20.569017,4.34443822 C20.569017,4.95172528 20.0770474,5.41886918 19.4913692,5.41886918 C19.1165352,5.41886918 18.7885554,5.23201162 18.6011384,4.95172528 C18.0623145,5.23201162 17.6640533,5.79258429 17.5469177,6.39987135 C18.5777113,6.79694366 19.4445149,7.56773109 19.9130575,8.59544766 L20.1473287,9.08594875 Z M15.5790391,20.0171159 L15.5790391,11.0245959 C15.5790391,10.0435937 14.641954,9.34287789 13.704869,9.59980703 C9.67540322,10.6508808 6.84072092,14.2478888 6.84072092,18.5222554 C6.84072092,22.3995497 9.20686069,25.7629858 12.7443568,27.1177031 C13.2597536,27.3045606 13.8454317,27.0476315 14.079703,26.5571304 C15.0402152,24.5250545 15.5790391,22.2827638 15.5790391,20.0171159 Z M19.4210878,27.1177031 C22.9585839,25.7629858 25.3481508,22.3995497 25.3481508,18.4988982 C25.3481508,14.2478888 22.41976,10.674238 18.530857,9.59980703 C17.593772,9.34287789 16.6566869,10.0435937 16.6566869,11.0245959 L16.6566869,20.0171159 C16.6566869,22.2827638 17.1252294,24.5250545 18.0857416,26.5571304 C18.3200129,27.0709887 18.905691,27.3279178 19.4210878,27.1177031 Z M12.3929499,24.0111962 C11.8072717,24.0111962 11.3153021,23.5440523 11.3153021,22.9367652 C11.3153021,22.3294782 11.8072717,21.8623343 12.3929499,21.8623343 C12.978628,21.8623343 13.4705977,22.3528353 13.4705977,22.9367652 C13.4705977,23.5440523 12.978628,24.0111962 12.3929499,24.0111962 Z M8.64460966,18.3353979 C8.64460966,17.751468 9.13657931,17.2843241 9.72225747,17.2609669 C10.3313628,17.2609669 10.7999053,17.751468 10.7999053,18.3353979 C10.7999053,18.9426849 10.3079356,19.4098288 9.72225747,19.4098288 C9.11315219,19.4098288 8.64460966,18.9193277 8.64460966,18.3353979 Z M12.3929499,14.9719618 C11.8072717,14.9719618 11.3153021,14.4814607 11.3153021,13.8975309 C11.3153021,13.2902438 11.8072717,12.8230999 12.3929499,12.8230999 C12.978628,12.8230999 13.4705977,13.313601 13.4705977,13.8975309 C13.4705977,14.5048179 12.978628,14.9719618 12.3929499,14.9719618 Z M19.6787862,12.8464571 C20.2644644,12.8464571 20.756434,13.313601 20.756434,13.9208881 C20.756434,14.5281751 20.2644644,14.995319 19.6787862,14.995319 C19.0696809,14.995319 18.6011384,14.5048179 18.6011384,13.9208881 C18.6011384,13.313601 19.0931081,12.8464571 19.6787862,12.8464571 Z M22.3494786,17.2843241 C22.9351568,17.2843241 23.4271264,17.751468 23.4271264,18.3587551 C23.4271264,18.9660421 22.9351568,19.433186 22.3494786,19.433186 C21.7403733,19.433186 21.2718308,18.9426849 21.2718308,18.3587551 C21.2718308,17.751468 21.7638005,17.2843241 22.3494786,17.2843241 Z M19.6787862,21.6988339 C20.2644644,21.6988339 20.756434,22.189335 20.756434,22.7732649 C20.756434,23.3571947 20.2644644,23.8476958 19.6787862,23.8476958 C19.0696809,23.8476958 18.6011384,23.3571947 18.6011384,22.7732649 C18.6011384,22.1659778 19.0931081,21.6988339 19.6787862,21.6988339 Z" id="Combined-Shape" fill="#415063" fill-rule="nonzero"></path>
                            <path d="M39.8495421,24.6418404 L39.8495421,6.98380122 L43.1059127,6.98380122 L43.1059127,24.6418404 L39.8495421,24.6418404 Z M49.1501113,13.6406017 L49.1969655,13.6406017 C49.3843825,13.3836726 49.6186538,13.1267434 49.8997793,12.8698143 C50.1809048,12.6128851 50.5088846,12.3793132 50.8602915,12.1924556 C51.2116984,12.0055981 51.6333867,11.8420977 52.055075,11.7253118 C52.5001904,11.6085258 52.9687329,11.5384542 53.4607025,11.5384542 C53.9292451,11.5384542 54.3743605,11.5851686 54.8194759,11.7019546 C55.2645913,11.8187405 55.6628524,11.9822409 56.0142593,12.1924556 C56.3656662,12.4260276 56.693646,12.7063139 56.9747715,13.0566718 C57.255897,13.4070298 57.4667412,13.8274593 57.630731,14.3413176 C57.7244396,14.6216039 57.7712938,14.9018902 57.8181481,15.228891 C57.8415752,15.5558917 57.8650023,15.9296068 57.8650023,16.3500363 L57.8650023,24.6651976 L54.7257674,24.6651976 L54.7257674,16.8405374 C54.7257674,16.4901795 54.7023402,16.2098931 54.6789131,15.952964 C54.655486,15.6960349 54.6086317,15.4858201 54.5383504,15.2989625 C54.3743605,14.9018902 54.1400892,14.5982467 53.8121094,14.4347463 C53.4841297,14.2478888 53.1092956,14.1778172 52.6407531,14.1778172 C52.0316478,14.1778172 51.4459697,14.3179604 50.8837186,14.5982467 C50.3214676,14.878533 49.8294979,15.2989625 49.3843825,15.836178 L49.3843825,24.6418404 L46.2451476,24.6418404 L46.2451476,11.8420977 L48.8455586,11.8420977 L49.1501113,13.6406017 Z M66.2987678,20.9514037 C66.2987678,20.6711173 66.2284865,20.4609026 66.0644966,20.274045 C65.9005067,20.0871875 65.7130897,19.9470443 65.4553913,19.8302583 C65.1976929,19.7134723 64.9165674,19.5966864 64.5651605,19.5266148 C64.2371807,19.433186 63.8857738,19.3397572 63.5343669,19.2696856 C63.0658244,19.1528997 62.6441361,19.0127565 62.1990207,18.8492561 C61.7773324,18.6857558 61.4024984,18.475541 61.0745186,18.2186119 C60.7465389,17.9616827 60.4888405,17.6113248 60.3014235,17.2142525 C60.1140065,16.8171802 60.0202979,16.3266791 60.0202979,15.7427492 C60.0202979,15.0186762 60.1374336,14.4113891 60.395132,13.8975309 C60.6528304,13.3836726 61.0042373,12.9398859 61.4259255,12.589528 C61.8710409,12.23917 62.3630106,11.9822409 62.9486888,11.8187405 C63.5343669,11.6552402 64.1434722,11.5618114 64.7760046,11.5618114 C65.5725269,11.5618114 66.2987678,11.631883 66.9781545,11.7486689 C67.6575412,11.8654549 68.2900736,12.0523125 68.8523246,12.23917 L68.8523246,14.7851043 C68.5711991,14.6916755 68.2432193,14.5982467 67.9386667,14.5048179 C67.6106869,14.4113891 67.2827071,14.3413176 66.9547274,14.2946032 C66.6267476,14.2245316 66.2987678,14.1778172 65.9707881,14.1311028 C65.6428083,14.0843884 65.3382556,14.0610312 65.033703,14.0610312 C64.658869,14.0610312 64.3543163,14.1077456 64.0966179,14.1778172 C63.8389196,14.2478888 63.6280754,14.3413176 63.4640855,14.4581035 C63.3000956,14.5748895 63.18296,14.7150327 63.1126786,14.878533 C63.0423973,15.0420334 62.995543,15.1821766 62.995543,15.3690341 C62.995543,15.6493205 63.0658244,15.9062496 63.2298143,16.0931072 C63.3938042,16.2799647 63.6046483,16.4201079 63.8623467,16.5368939 C64.1434722,16.6536798 64.4245977,16.7471086 64.7291504,16.8171802 C65.033703,16.8872518 65.3148285,16.9573234 65.595954,17.027395 C66.0410694,17.1441809 66.4861848,17.2609669 66.9313002,17.4011101 C67.3764156,17.5412532 67.7746768,17.751468 68.1260837,18.0317543 C68.4774906,18.3120407 68.7586161,18.6390414 68.9928874,19.0828281 C69.2271586,19.5032576 69.3208671,20.0638303 69.3208671,20.7178317 C69.3208671,21.4419048 69.1803044,22.072549 68.8991789,22.6097645 C68.6180534,23.14698 68.2432193,23.5907667 67.7512497,23.9411246 C67.25928,24.2914825 66.6736019,24.5717688 65.9942152,24.7352692 C65.3148285,24.8987696 64.5651605,24.9921984 63.7452111,24.9921984 C62.9252616,24.9921984 62.1990207,24.9221268 61.5430612,24.8053408 C60.8871016,24.6885548 60.3482777,24.5250545 59.9265894,24.3148397 L59.9265894,21.7922627 C60.6059761,22.0491918 61.2619356,22.2126922 61.8241867,22.306121 C62.4098648,22.3995497 62.9486888,22.4462641 63.4640855,22.4462641 C63.8623467,22.4462641 64.2137536,22.4229069 64.5417333,22.3528353 C64.8697131,22.306121 65.1742658,22.2126922 65.408537,22.072549 C65.6428083,21.955763 65.8536524,21.7922627 65.9942152,21.6054051 C66.2284865,21.4419048 66.2987678,21.2083328 66.2987678,20.9514037 Z M79.2773959,24.6418404 C78.925989,24.7586264 78.5043007,24.828698 78.0123311,24.8987696 C77.5203614,24.9688412 77.075246,24.9921984 76.6301306,24.9921984 C75.5524828,24.9921984 74.662252,24.828698 73.9828653,24.4783401 C73.3034786,24.1279821 72.811509,23.6374811 72.5303835,22.9834796 C72.3195393,22.5163357 72.2258308,21.8856915 72.2258308,21.0915468 L72.2258308,14.4581035 L69.8362639,14.4581035 L69.8362639,11.8888121 L72.2258308,11.8888121 L72.2258308,8.31516132 L75.3650658,8.31516132 L75.3650658,11.8888121 L79.0665517,11.8888121 L79.0665517,14.4581035 L75.3650658,14.4581035 L75.3650658,20.6711173 C75.3650658,21.1616184 75.4353471,21.5353335 75.599337,21.7689055 C75.8570354,22.1659778 76.3958593,22.3761925 77.1689545,22.3761925 C77.5203614,22.3761925 77.8951954,22.3528353 78.2466023,22.2827638 C78.5980092,22.2360494 78.9494161,22.1426206 79.2539688,22.072549 L79.2539688,24.6418404 L79.2773959,24.6418404 Z M114.441513,24.9921984 C113.153021,24.9921984 112.075373,24.7819836 111.231996,24.3381969 C110.38862,23.8944102 109.756087,23.3104803 109.310972,22.5864073 C109.076701,22.189335 108.912711,21.7455483 108.795575,21.2784044 C108.67844,20.8112605 108.631585,20.274045 108.631585,19.6901152 L108.631585,11.8654549 L111.77082,11.8654549 L111.77082,19.3397572 C111.77082,19.7601867 111.794247,20.1339019 111.864529,20.4609026 C111.93481,20.7645461 112.028519,21.0448324 112.145654,21.2784044 C112.356498,21.6754767 112.661051,21.955763 113.035885,22.1426206 C113.434146,22.3294782 113.879262,22.4229069 114.418086,22.4229069 C114.980337,22.4229069 115.472306,22.306121 115.870567,22.0959062 C116.268829,21.8856915 116.573381,21.5586907 116.784225,21.1382612 C116.995069,20.7178317 117.088778,20.157259 117.088778,19.4098288 L117.088778,11.8654549 L120.228013,11.8654549 L120.228013,19.6901152 C120.228013,20.7411889 120.040596,21.6054051 119.689189,22.3294782 C119.478345,22.7265505 119.220646,23.1002656 118.892667,23.4272663 C118.564687,23.754267 118.189853,24.0345534 117.744738,24.2681253 C117.299622,24.5016973 116.807652,24.6885548 116.268829,24.8053408 C115.730005,24.9221268 115.120899,24.9921984 114.441513,24.9921984 Z" id="Combined-Shape" fill="#FFFFFF" fill-rule="nonzero"></path>
                            <path d="M88.6013922,23.2871231 L88.554538,23.2871231 C88.3671209,23.4739807 88.1562768,23.6608383 87.9220055,23.8476958 C87.6643071,24.0345534 87.3831816,24.2214109 87.078629,24.3849113 C86.7506492,24.5484117 86.3992423,24.6885548 86.0244083,24.8053408 C85.6261471,24.9221268 85.227886,24.9688412 84.7593435,24.9688412 C84.1502382,24.9688412 83.5879871,24.8754124 83.0491632,24.6885548 C82.5103393,24.5016973 82.0652239,24.2214109 81.6903899,23.871053 C81.3155559,23.5206951 81.0110032,23.0769084 80.8001591,22.5864073 C80.589315,22.072549 80.4721793,21.5119763 80.4721793,20.8813321 C80.4721793,20.2039734 80.589315,19.5733292 80.8470134,19.0361137 C81.1047117,18.4988982 81.4561186,18.0317543 81.901234,17.6580392 C82.3463494,17.2843241 82.8851734,16.9806806 83.5177058,16.793823 C84.1502382,16.6069654 84.8296248,16.4901795 85.60272,16.4901795 C86.1649711,16.4901795 86.6803678,16.5368939 87.1489104,16.6069654 C87.6174529,16.677037 88.0391412,16.7704658 88.3905481,16.8638946 L88.3905481,16.3500363 C88.3905481,16.0463928 88.3436938,15.7661064 88.2499853,15.4858201 C88.1562768,15.2055338 87.9922869,14.9719618 87.7580157,14.7383899 C87.5237444,14.5281751 87.2426189,14.3413176 86.8677848,14.2245316 C86.516378,14.1077456 86.0712626,14.037674 85.5324386,14.037674 C84.8999062,14.037674 84.2673738,14.1077456 83.6348414,14.2478888 C83.002309,14.3880319 82.2994952,14.5982467 81.5732543,14.878533 L81.5732543,12.4260276 C82.2292138,12.1457413 82.9086005,11.9355265 83.6348414,11.7720261 C84.3610823,11.631883 85.1107504,11.5384542 85.9072727,11.5384542 C86.8443577,11.5384542 87.6643071,11.6552402 88.3671209,11.8888121 C89.0699347,12.1223841 89.6556129,12.4260276 90.1241554,12.8230999 C90.592698,13.2201722 90.9441049,13.6873161 91.1783761,14.2478888 C91.4126474,14.7851043 91.529783,15.3923913 91.529783,16.0230356 L91.529783,20.8346177 C91.529783,21.6754767 91.529783,22.3995497 91.5532101,23.0068368 C91.5766373,23.6141239 91.6000644,24.1513393 91.6000644,24.6418404 L88.7653821,24.6418404 L88.6013922,23.2871231 Z M87.3129003,19.0127565 C86.9146391,18.9660421 86.5398051,18.9193277 86.1415439,18.9193277 C85.3684488,18.9193277 84.7593435,19.0828281 84.3142281,19.3631144 C83.8691127,19.666758 83.6348414,20.1339019 83.6348414,20.7645461 C83.6348414,21.0448324 83.6816957,21.3017616 83.7754042,21.5353335 C83.8691127,21.7455483 84.0096754,21.9324058 84.1970924,22.072549 C84.3610823,22.2126922 84.5719265,22.3294782 84.8061977,22.3995497 C85.040469,22.4696213 85.2747403,22.5163357 85.5324386,22.5163357 C85.8604184,22.5163357 86.1415439,22.4696213 86.4226694,22.3995497 C86.703795,22.306121 86.9614934,22.2126922 87.1957646,22.072549 C87.4300359,21.955763 87.64088,21.7922627 87.828297,21.6521195 C88.015714,21.4886191 88.1797039,21.348476 88.3202667,21.1849756 L88.3202667,19.1996141 C88.3202667,19.1996141 87.7111614,19.0594709 87.3129003,19.0127565 Z" id="Shape" fill="#FFFFFF" fill-rule="nonzero"></path>
                            <path d="M106.663707,18.0317543 C106.663707,19.1762569 106.499717,20.2039734 106.171737,21.0915468 C105.843757,21.9791202 105.398642,22.7031933 104.859818,23.2871231 C104.320994,23.871053 103.711889,24.2914825 103.032502,24.5717688 C102.353115,24.8520552 101.673729,24.9921984 100.970915,24.9921984 C100.478945,24.9921984 100.057257,24.9221268 99.6589959,24.8053408 C99.2607347,24.6885548 98.932755,24.5484117 98.6282023,24.3615541 C98.3470768,24.1746965 98.0893784,24.0111962 97.9019614,23.8009814 C97.7145444,23.6141239 97.5505545,23.4272663 97.4334189,23.2871231 L97.3865646,23.2871231 L97.082012,24.6418404 L94.4816009,24.6418404 C94.5050281,24.2681253 94.5050281,23.8009814 94.5284552,23.2404087 C94.5518823,22.6798361 94.5518823,22.1426206 94.5518823,21.6521195 L94.5518823,5.53565515 L97.6911173,5.53565515 L97.6911173,10.8610955 L97.6911173,11.9121693 C97.6911173,12.23917 97.6676901,12.472742 97.6676901,12.6595995 L97.6911173,12.6595995 C97.9019614,12.5194564 98.1128055,12.3793132 98.3470768,12.23917 C98.5813481,12.0990269 98.8390465,11.9822409 99.120172,11.8888121 C99.4012975,11.7720261 99.7058501,11.7019546 100.03383,11.631883 C100.36181,11.5618114 100.713217,11.5384542 101.064623,11.5384542 C101.790864,11.5384542 102.470251,11.6785974 103.149638,11.9355265 C103.829024,12.1924556 104.414703,12.589528 104.953526,13.1267434 C105.468923,13.6639589 105.890612,14.3413176 106.195164,15.1821766 C106.499717,15.9996784 106.663707,16.9573234 106.663707,18.0317543 Z M103.407336,18.1952547 C103.407336,17.4011101 103.313628,16.7003942 103.126211,16.1398216 C102.938794,15.5558917 102.681095,15.112105 102.353115,14.8084615 C102.048563,14.5048179 101.720583,14.2946032 101.369176,14.2011744 C101.017769,14.0843884 100.689789,14.037674 100.36181,14.037674 C99.8932672,14.037674 99.4247246,14.1311028 98.9561821,14.3179604 C98.4876396,14.5048179 98.0425242,14.7383899 97.6676901,15.0653906 L97.6676901,21.1849756 C97.7848258,21.3251188 97.9488157,21.4652619 98.1362327,21.6287623 C98.3236497,21.7922627 98.5110667,21.9324058 98.745338,22.0491918 C98.9796092,22.1659778 99.2138805,22.2827638 99.4715789,22.3761925 C99.7292773,22.4696213 100.010403,22.4929785 100.314955,22.4929785 C100.830352,22.4929785 101.275468,22.3995497 101.650302,22.189335 C102.025136,21.9791202 102.353115,21.6988339 102.610814,21.3017616 C102.868512,20.9280465 103.079356,20.4609026 103.196492,19.9470443 C103.360482,19.4098288 103.407336,18.8492561 103.407336,18.1952547 Z" id="Shape" fill="#FFFFFF" fill-rule="nonzero"></path>
                            <path d="M131.191908,24.9921984 L131.191908,24.3381969 C131.191908,24.0812678 131.215335,23.871053 131.215335,23.6841954 L131.191908,23.6841954 C131.004491,23.8476958 130.77022,23.987839 130.512521,24.1513393 C130.254823,24.3148397 129.997125,24.4549829 129.692572,24.5717688 C129.388019,24.6885548 129.06004,24.8053408 128.708633,24.8754124 C128.357226,24.945484 127.982392,24.9921984 127.584131,24.9921984 C126.904744,24.9921984 126.248784,24.8754124 125.592825,24.6184832 C124.936865,24.3849113 124.374614,23.987839 123.859218,23.4739807 C123.367248,22.9601224 122.94556,22.2827638 122.641007,21.4652619 C122.336454,20.6477601 122.172464,19.666758 122.172464,18.4988982 C122.172464,17.3543957 122.336454,16.3266791 122.641007,15.4624629 C122.94556,14.5982467 123.367248,13.8741737 123.882645,13.2902438 C124.398041,12.7063139 125.007147,12.2625272 125.686533,11.9822409 C126.36592,11.6785974 127.068734,11.5384542 127.771548,11.5384542 C128.56807,11.5384542 129.247457,11.7019546 129.856562,12.0289553 C130.465667,12.355956 130.957637,12.7763855 131.355898,13.2902438 L131.402752,13.2902438 L131.543315,11.8420977 L134.307716,11.8420977 L134.307716,24.8754124 C134.307716,25.6228426 134.237435,26.2768441 134.120299,26.8140595 C134.003163,27.351275 133.815746,27.8184189 133.581475,28.2388484 C133.300349,28.7293495 132.948943,29.149779 132.503827,29.5001369 C132.058712,29.8504949 131.566742,30.1541384 131.004491,30.3877103 C130.44224,30.6212823 129.833135,30.8081398 129.153748,30.9249258 C128.474361,31.0417118 127.771548,31.1117834 127.02188,31.1117834 C126.600191,31.1117834 126.178503,31.0884262 125.780242,31.065069 C125.381981,31.0417118 124.98372,30.9949974 124.632313,30.9249258 C124.280906,30.8782114 123.952926,30.8081398 123.648373,30.7380683 C123.343821,30.6679967 123.109549,30.5745679 122.898705,30.5044963 L122.898705,27.9585621 C123.484383,28.1454196 124.093489,28.30892 124.726021,28.4023488 C125.358554,28.4957776 126.03794,28.5658491 126.740754,28.5658491 C128.146382,28.5658491 129.224029,28.2855628 129.997125,27.7483473 C130.77022,27.2111319 131.145054,26.39363 131.145054,25.2958419 L131.145054,24.9921984 L131.191908,24.9921984 Z M128.380653,22.4929785 C128.708633,22.4929785 128.989758,22.4462641 129.270884,22.3761925 C129.552009,22.306121 129.809708,22.189335 130.043979,22.072549 C130.27825,21.955763 130.489094,21.8156199 130.676511,21.6521195 C130.863928,21.5119763 131.027918,21.348476 131.168481,21.2083328 L131.168481,15.4858201 C130.840501,15.0887478 130.418813,14.7617471 129.926843,14.5048179 C129.434874,14.2478888 128.89605,14.1077456 128.357226,14.0843884 C128.169809,14.0843884 127.958965,14.1077456 127.74812,14.15446 C127.537276,14.2011744 127.303005,14.2946032 127.092161,14.4113891 C126.881317,14.5281751 126.670473,14.6916755 126.459629,14.9018902 C126.272212,15.112105 126.084795,15.3690341 125.944232,15.6960349 C125.803669,16.0230356 125.663106,16.3967507 125.569398,16.8405374 C125.475689,17.2843241 125.428835,17.7981824 125.428835,18.3821122 C125.428835,19.0127565 125.499116,19.5966864 125.616252,20.1105447 C125.733388,20.6244029 125.920805,21.0448324 126.178503,21.3951904 C126.436201,21.7455483 126.740754,22.0258346 127.092161,22.2126922 C127.466995,22.3995497 127.888683,22.4929785 128.380653,22.4929785 Z" id="Shape" fill="#FFFFFF" fill-rule="nonzero"></path>
                        </g>
                    </g>
                </g>
            </g>
        </g>
    </g>
</svg>