<?xml version="1.0" encoding="UTF-8"?>
<svg width="2375px" height="1671px" viewBox="0 0 2375 1671" version="1.1" xmlns="http://www.w3.org/2000/svg" xmlns:xlink="http://www.w3.org/1999/xlink">
    <!-- Generator: Sketch 49.1 (51147) - http://www.bohemiancoding.com/sketch -->
    <title>Combined Shape</title>
    <desc>Created with Sketch.</desc>
    <defs></defs>
    <g id="Home" stroke="none" stroke-width="1" fill="none" fill-rule="evenodd">
        <path d="M853,0 L853,1109.9002 C853,1153.3626 881.073302,1191.84854 922.459127,1205.12234 L2375,1671 L0,1671 L0,0 L853,0 Z M144,414 L144,636 L236,636 L236,604.285714 L178.776632,604.285714 L178.776632,414 L144,414 Z M286.466667,507.557143 L286.466667,445.714286 L346,445.714286 L346,414 L252,414 L252,636 L346,636 L346,604.285714 L286.466667,604.285714 L286.466667,539.271429 L333.78,539.271429 L333.78,507.557143 L286.466667,507.557143 Z M360,414 L360,445.714286 L396.529412,445.714286 L396.529412,636 L431.470588,636 L431.470588,445.714286 L468,445.714286 L468,414 L360,414 Z M481,448.475728 L493.679245,448.475728 L484.924528,481 L498.509434,481 L513,444.898058 L513,414 L481,414 L481,448.475728 Z M533.932927,465.307263 C533.932927,475.782175 535.591447,484.895213 538.908537,492.646648 C542.225626,500.398083 546.371926,507.311422 551.347561,513.386872 C556.323196,519.462321 561.661557,525.066315 567.362805,530.199022 C573.064053,535.33173 578.402414,540.46436 583.378049,545.597067 C588.353683,550.729774 592.499983,556.176647 595.817073,561.937849 C599.134163,567.699051 600.792683,574.350521 600.792683,581.892458 C600.792683,589.853392 599.185992,595.405012 595.972561,598.547486 C592.75913,601.68996 588.457344,603.261173 583.067073,603.261173 C577.676802,603.261173 573.375016,601.68996 570.161585,598.547486 C566.948155,595.405012 565.341463,589.853392 565.341463,581.892458 L565.341463,566.180168 L533,566.180168 L533,579.692737 C533,597.500089 537.301786,611.169645 545.905488,620.701816 C554.509189,630.233986 567.207233,635 584,635 C600.792767,635 613.490811,630.233986 622.094512,620.701816 C630.698214,611.169645 635,597.500089 635,579.692737 C635,569.217825 633.34148,560.104787 630.02439,552.353352 C626.7073,544.601917 622.561,537.688578 617.585366,531.613128 C612.609731,525.537679 607.27137,519.933685 601.570122,514.800978 C595.868874,509.66827 590.530513,504.53564 585.554878,499.402933 C580.579243,494.270226 576.432943,488.823353 573.115854,483.062151 C569.798764,477.300949 568.140244,470.649479 568.140244,463.107542 C568.140244,455.146608 569.643278,449.542614 572.64939,446.295391 C575.655503,443.048168 579.853632,441.424581 585.243902,441.424581 C590.634173,441.424581 594.832302,443.048168 597.838415,446.295391 C600.844527,449.542614 602.347561,455.146608 602.347561,463.107542 L602.347561,472.22067 L634.689024,472.22067 L634.689024,465.307263 C634.689024,447.499911 630.490896,433.830355 622.094512,424.298184 C613.698129,414.766014 601.103742,410 584.310976,410 C567.518209,410 554.923822,414.766014 546.527439,424.298184 C538.131056,433.830355 533.932927,447.499911 533.932927,465.307263 Z M218.687117,793 L168,793 L168,1015 L202.417178,1015 L202.417178,931.591429 L218.687117,931.591429 C236.000087,931.591429 248.880326,926.940047 257.328221,917.637143 C265.776116,908.334239 270,894.697233 270,876.725714 L270,847.865714 C270,829.894196 265.776116,816.257189 257.328221,806.954286 C248.880326,797.651382 236.000087,793 218.687117,793 Z M203,824 L218.698113,824 C223.930844,824 227.955961,825.457088 230.773585,828.371308 C233.591209,831.285528 235,836.697569 235,844.607595 L235,877.392405 C235,885.302431 233.591209,890.714472 230.773585,893.628692 C227.955961,896.542912 223.930844,898 218.698113,898 L203,898 L203,824 Z M290,793 L290,1015 L382,1015 L382,983.285714 L324.776632,983.285714 L324.776632,793 L290,793 Z M508,1015 L472.509091,793 L421.490909,793 L386,1015 L418.005195,1015 L424.025974,974.722857 L466.805195,974.722857 L472.825974,1015 L508,1015 Z M430,944 L446,833 L462,944 L430,944 Z M542.064433,941.422857 L542.064433,1015 L576.935567,1015 L576.935567,941.422857 L621,793 L587.713918,793 L561.085052,894.168571 L534.456186,793 L498,793 L542.064433,941.422857 Z" id="Combined-Shape" fill="#FFFFFF"></path>
    </g>
</svg>