<?xml version="1.0" encoding="UTF-8"?>
<svg width="24px" height="24px" viewBox="0 0 24 24" version="1.1" xmlns="http://www.w3.org/2000/svg" xmlns:xlink="http://www.w3.org/1999/xlink">
    <!-- Generator: Sketch 49.1 (51147) - http://www.bohemiancoding.com/sketch -->
    <title>medium-icon</title>
    <desc>Created with Sketch.</desc>
    <defs>
        <path d="M0,0 L0,24 L24,24 L24,0 L0,0 Z M19.9392857,5.68392857 L18.6535714,6.91607143 C18.5410714,7.00178571 18.4875,7.14107143 18.5089286,7.275 L18.5089286,16.3446429 C18.4875,16.4839286 18.5410714,16.6232143 18.6535714,16.7035714 L19.9125,17.9357143 L19.9125,18.2089286 L13.5910714,18.2089286 L13.5910714,17.9464286 L14.8928571,16.6821429 C15.0214286,16.5535714 15.0214286,16.5160714 15.0214286,16.3232143 L15.0214286,8.98928571 L11.4,18.1821429 L10.9125,18.1821429 L6.69642857,8.98928571 L6.69642857,15.15 C6.65892857,15.4071429 6.75,15.6696429 6.93214286,15.8571429 L8.625,17.9089286 L8.625,18.1821429 L3.81428571,18.1821429 L3.81428571,17.9089286 L5.50714286,15.8571429 C5.68928571,15.6696429 5.76964286,15.4071429 5.72678571,15.15 L5.72678571,8.025 C5.74821429,7.82678571 5.67321429,7.63392857 5.52321429,7.5 L4.01785714,5.68392857 L4.01785714,5.41071429 L8.69464286,5.41071429 L12.3053571,13.3392857 L15.4821429,5.41607143 L19.9392857,5.41607143 L19.9392857,5.68392857 Z" id="path-1"></path>
    </defs>
    <g id="Home" stroke="none" stroke-width="1" fill="none" fill-rule="evenodd" opacity="0.5">
        <g id="home" transform="translate(-806.000000, -2411.000000)">
            <g id="Group-8" transform="translate(0.000000, 2385.000000)">
                <g id="Stacked-Group-3-Copy" transform="translate(611.000000, 26.000000)">
                    <g id="Brands/medium" transform="translate(195.000000, 0.000000)">
                        <mask id="mask-2" fill="white">
                            <use xlink:href="#path-1"></use>
                        </mask>
                        <g id="Mask"></g>
                        <g id="Color/Black-Copy" mask="url(#mask-2)" fill="#FFFFFF" fill-rule="evenodd">
                            <rect id="Black" x="0" y="0" width="24" height="24"></rect>
                        </g>
                    </g>
                </g>
            </g>
        </g>
    </g>
</svg>